<?xml version="1.0" standalone="no"?>
<!DOCTYPE svg PUBLIC "-//W3C//DTD SVG 20010904//EN"
 "http://www.w3.org/TR/2001/REC-SVG-20010904/DTD/svg10.dtd">
<svg version="1.0" xmlns="http://www.w3.org/2000/svg"
 width="400.000000pt" height="400.000000pt" viewBox="0 0 400.000000 400.000000"
 preserveAspectRatio="xMidYMid meet">
<metadata>
Created by potrace 1.11, written by Peter Selinger 2001-2013
</metadata>
<g transform="translate(0.000000,400.000000) scale(0.100000,-0.100000)"
fill="#000000" stroke="none">
<path d="M799 3710 c-20 -5 -20 -7 -5 -19 9 -7 16 -20 16 -27 0 -8 5 -14 10
-14 6 0 10 -5 10 -11 0 -6 9 -24 21 -40 11 -16 17 -29 13 -29 -4 0 0 -8 8 -17
9 -10 33 -49 55 -88 61 -108 68 -120 73 -125 3 -3 12 -18 20 -35 8 -16 17 -32
20 -35 3 -3 14 -23 26 -45 27 -52 48 -89 54 -95 3 -3 12 -18 20 -35 8 -16 17
-32 20 -35 3 -3 11 -15 18 -27 6 -13 18 -33 25 -45 6 -13 17 -26 22 -30 6 -4
7 -8 3 -8 -4 0 8 -25 27 -55 19 -30 35 -59 35 -65 0 -5 5 -10 10 -10 6 0 10
-9 10 -19 0 -10 7 -22 16 -25 9 -4 14 -13 10 -21 -3 -8 -1 -15 4 -15 8 0 50
-70 50 -82 0 -2 -26 -3 -58 -3 -72 0 -123 -30 -152 -91 -24 -48 -25 -82 -5
-131 15 -35 14 -37 -27 -114 l-43 -78 -41 47 c-23 26 -60 61 -83 76 -33 23
-41 34 -39 55 l3 26 -108 -4 c-143 -4 -157 4 -157 93 0 56 3 66 28 88 15 14
35 35 44 47 13 16 29 21 60 21 l43 -1 -30 -13 c-65 -29 -91 -96 -60 -155 26
-51 62 -61 188 -51 59 5 111 12 117 15 10 6 36 83 29 89 -2 2 -40 -1 -84 -6
-136 -16 -159 -15 -163 4 -2 13 5 17 35 20 l38 3 3 94 3 94 -130 -5 c-103 -4
-131 -2 -135 9 -11 28 -96 6 -96 -25 0 -4 -22 -15 -49 -25 -27 -9 -72 -35
-100 -57 -157 -124 -204 -335 -115 -514 36 -73 88 -122 263 -249 85 -62 165
-121 179 -133 l25 -20 -58 -225 c-32 -123 -64 -252 -73 -286 -8 -35 -18 -63
-21 -63 -3 0 -16 15 -27 33 l-22 33 39 155 c21 85 42 175 45 201 21 154 -61
258 -202 258 -77 0 -128 -29 -169 -94 -27 -44 -30 -59 -33 -142 -4 -83 -1 -99
22 -150 14 -31 60 -103 102 -161 69 -95 75 -106 66 -131 -6 -15 -15 -48 -22
-73 -11 -45 -14 -47 -53 -52 -124 -17 -111 -197 15 -197 62 0 92 31 118 123
12 39 25 83 29 96 l7 25 27 -35 26 -35 -38 -144 c-21 -80 -53 -199 -71 -265
-17 -66 -43 -160 -56 -210 -13 -49 -24 -103 -24 -118 0 -68 71 -146 147 -162
66 -13 155 32 188 96 23 43 19 121 -7 154 -24 31 -29 21 72 179 l57 88 17 -23
c17 -25 22 -59 8 -59 -7 0 -52 -83 -52 -95 0 -3 -9 -15 -20 -27 -38 -41 -28
-45 102 -45 113 1 122 -1 136 -21 51 -76 143 -190 175 -216 33 -27 47 -31 96
-31 47 0 65 5 99 29 56 39 87 102 78 163 -3 25 -11 52 -17 59 -12 15 -4 17 56
16 16 -1 33 4 37 11 5 8 8 8 8 1 0 -8 51 -11 168 -12 167 0 212 7 212 35 0 8
7 21 15 30 8 8 13 19 10 24 -4 5 -1 9 4 9 6 0 11 7 11 15 0 8 4 15 9 15 5 0
21 24 36 53 42 83 69 132 77 135 5 2 8 9 8 17 0 7 7 18 15 25 9 7 13 15 11 18
-3 2 7 23 23 46 15 22 56 93 91 156 35 63 67 117 70 120 3 3 17 26 30 53 14
26 29 47 33 47 5 0 6 4 3 9 -3 5 1 14 9 21 8 7 12 16 9 21 -3 5 0 9 5 9 6 0
11 7 11 15 0 7 7 18 16 23 9 5 15 13 15 18 -1 5 6 23 15 40 19 35 31 35 106
-1 54 -26 94 -11 221 85 59 44 109 80 112 80 6 0 76 -145 131 -267 l23 -53
-39 0 c-54 0 -101 -42 -134 -123 -14 -34 -68 -186 -121 -337 l-96 -275 -39 0
c-107 -2 -172 -132 -118 -235 57 -105 178 -129 268 -53 18 14 97 119 177 232
80 113 153 214 161 224 14 16 19 11 72 -70 101 -158 96 -147 72 -178 -31 -39
-30 -120 1 -166 50 -75 128 -103 205 -73 57 21 98 63 114 115 12 42 10 54 -77
374 -114 424 -112 407 -66 449 15 14 21 15 21 6 0 -37 54 -185 75 -206 32 -31
101 -33 138 -4 72 57 26 180 -66 180 -21 0 -27 9 -46 75 -12 41 -19 80 -15 87
4 7 33 47 64 88 119 158 151 250 127 367 -26 121 -96 183 -209 183 -83 0 -137
-33 -173 -104 -36 -72 -33 -137 15 -323 22 -86 40 -164 40 -174 0 -19 -31 -79
-41 -79 -3 0 -13 28 -22 63 -9 34 -39 148 -66 253 -71 273 -69 257 -29 286 18
14 103 77 188 140 163 121 206 162 241 231 74 143 61 305 -35 434 -46 63 -144
136 -197 148 -17 4 -33 14 -36 23 -4 10 -11 20 -17 24 -18 13 -66 9 -72 -5 -4
-11 -35 -14 -137 -13 l-132 1 -1 -88 c-2 -95 -6 -89 61 -99 11 -2 20 -10 20
-18 0 -16 -24 -17 -167 -2 -48 5 -78 4 -78 -1 0 -25 24 -87 34 -87 6 -1 57 -5
113 -10 117 -10 152 -3 179 38 10 15 17 45 17 69 0 48 -20 77 -68 100 -30 14
-29 14 20 9 29 -2 51 -9 54 -18 2 -7 19 -27 38 -45 30 -28 33 -37 33 -87 0
-43 -5 -61 -21 -77 -19 -19 -31 -20 -132 -18 l-112 3 0 -26 c0 -19 -13 -36
-51 -66 -28 -22 -65 -57 -82 -77 l-30 -38 -41 80 -40 80 16 44 c21 58 11 109
-30 156 -54 61 -129 79 -204 48 -40 -17 -43 -15 -79 54 -10 20 -25 44 -33 54
-8 9 -11 17 -8 17 4 0 0 8 -8 18 -8 9 -15 21 -14 26 0 5 -3 12 -8 15 -5 3 -21
26 -34 51 -54 96 -72 126 -91 153 -11 15 -16 27 -11 27 4 0 3 4 -2 8 -6 4 -19
24 -30 45 -11 20 -23 37 -28 37 -4 0 -6 4 -3 9 3 4 -6 23 -19 41 -14 19 -25
40 -25 47 0 7 -4 13 -9 13 -5 0 -14 12 -20 28 -14 33 -32 64 -50 86 -7 9 -10
16 -7 16 4 0 0 7 -8 16 -9 8 -16 22 -16 30 0 8 -5 14 -11 14 -5 0 -7 5 -4 10
3 6 2 10 -3 10 -5 0 -12 8 -15 18 -4 9 -18 35 -32 57 -13 22 -28 47 -32 55 -3
8 -18 33 -32 55 -14 22 -25 44 -26 49 0 12 -776 13 -795 1 -7 -5 -11 -4 -7 1
6 11 -135 10 -153 -1 -7 -5 -11 -4 -7 1 5 10 -146 13 -184 4z m-224 -1157 c12
-163 47 -203 178 -203 49 0 79 -6 110 -21 143 -73 237 -223 237 -379 0 -39 -4
-70 -9 -70 -4 0 -38 23 -74 50 -36 28 -70 50 -75 50 -5 0 -12 -12 -16 -27 -3
-16 -8 -37 -12 -49 -5 -18 14 -36 128 -119 73 -54 165 -122 204 -152 67 -50
72 -52 102 -41 45 17 86 1 90 -35 2 -15 -1 -27 -7 -27 -6 0 -17 -16 -25 -35
-26 -61 -12 -69 -436 246 -107 80 -263 195 -347 257 -223 166 -257 213 -257
357 0 67 4 88 26 130 14 28 39 64 55 81 26 29 99 82 114 83 4 1 10 -43 14 -96z
m2913 73 c92 -58 162 -175 162 -270 0 -58 -33 -149 -71 -197 -17 -22 -99 -90
-182 -152 -754 -560 -736 -547 -767 -547 -15 0 -35 9 -45 20 -17 18 -17 21 2
59 11 22 24 37 28 33 5 -4 5 1 2 11 -8 20 22 24 52 6 15 -10 37 2 152 87 74
55 167 124 207 153 43 32 71 59 68 67 -3 7 -8 29 -12 48 -3 20 -10 36 -16 36
-5 0 -39 -22 -75 -50 -36 -27 -70 -50 -76 -50 -6 0 -8 34 -5 89 7 114 43 198
121 275 76 76 139 106 223 106 112 0 158 36 169 132 3 24 7 57 9 73 3 17 5 45
5 63 1 17 3 32 6 32 3 0 22 -11 43 -24z m-2114 -97 c14 -11 26 -31 26 -43 0
-13 -47 -126 -104 -251 -92 -201 -106 -225 -111 -199 -4 16 -11 44 -15 62 -8
30 -1 50 63 177 68 137 70 145 54 163 -24 26 -21 59 8 87 29 30 45 31 79 4z
m1341 -4 c30 -29 32 -54 6 -87 -20 -24 -20 -25 5 -68 13 -23 22 -45 20 -48 -3
-2 -13 12 -22 32 -10 20 -21 36 -26 36 -4 0 -8 6 -8 13 0 7 -15 37 -34 67
l-35 55 22 12 c32 18 45 16 72 -12z m-1205 -70 c0 -8 5 -15 11 -15 5 0 7 -4 4
-10 -3 -5 -2 -10 3 -10 4 0 14 -16 22 -35 8 -19 18 -35 22 -35 5 0 7 -4 4 -9
-4 -5 -2 -11 2 -13 11 -4 77 -121 74 -130 -1 -5 1 -8 6 -8 4 0 19 -21 32 -47
14 -26 31 -54 38 -61 10 -11 9 -20 -6 -45 -11 -18 -32 -54 -48 -82 -15 -27
-32 -53 -37 -56 -5 -3 -8 -10 -8 -15 1 -5 -6 -17 -14 -26 -8 -10 -12 -18 -9
-18 3 0 -4 -13 -15 -29 -12 -16 -21 -33 -21 -38 0 -5 -10 -20 -22 -33 -13 -14
-22 -27 -22 -30 2 -9 -9 -35 -21 -47 -9 -9 -19 -7 -43 7 -17 11 -55 22 -84 25
-51 6 -83 22 -152 78 -24 19 -27 26 -17 43 10 17 42 85 131 279 15 33 47 101
70 150 67 142 80 175 80 201 0 13 5 24 10 24 6 0 10 -7 10 -15z m1270 -189 c0
-5 -7 -1 -15 10 -8 10 -14 24 -14 29 0 6 6 1 14 -9 8 -11 15 -24 15 -30z m20
-36 c6 -11 8 -20 6 -20 -3 0 -10 9 -16 20 -6 11 -8 20 -6 20 3 0 10 -9 16 -20z
m50 -107 c0 -26 -16 -12 -18 15 -1 21 0 23 8 12 5 -8 10 -21 10 -27z m-47
-315 c4 -12 -9 -27 -46 -55 -74 -56 -79 -58 -64 -31 68 124 79 139 92 121 6
-10 14 -26 18 -35z m-2279 -79 c35 -41 34 -95 -4 -239 -16 -62 -31 -114 -33
-116 -6 -6 -83 115 -97 151 -19 50 -28 126 -18 161 20 74 106 98 152 43z
m3074 15 c39 -27 54 -80 41 -143 -12 -60 -52 -145 -92 -199 l-25 -33 -11 33
c-5 18 -22 79 -36 136 -21 86 -24 109 -15 142 20 72 84 102 138 64z m-2606
-156 c-2 -7 -64 -146 -139 -308 -74 -162 -137 -300 -140 -306 -2 -7 12 -11 41
-10 60 1 96 -31 96 -86 0 -31 -17 -65 -87 -176 -47 -75 -108 -170 -135 -210
-62 -91 -64 -99 -39 -107 32 -10 51 -34 51 -62 0 -62 -83 -88 -116 -38 -18 27
-12 53 180 780 45 169 97 370 122 465 14 52 30 110 35 128 l11 33 61 -45 c34
-25 61 -51 59 -58z m2169 24 c10 -37 36 -137 58 -222 71 -270 204 -777 257
-983 24 -91 25 -99 10 -122 -12 -19 -25 -25 -51 -25 -41 0 -65 22 -65 60 0 26
21 60 38 60 39 1 28 25 -102 228 -75 116 -141 223 -146 237 -23 61 25 121 96
119 29 -1 43 3 40 10 -2 6 -64 139 -136 296 -73 157 -136 295 -141 307 -7 19
0 28 53 67 34 25 64 44 67 41 2 -3 12 -36 22 -73z m-1966 -162 c59 -44 112
-80 116 -80 19 0 7 -31 -41 -113 -27 -47 -50 -90 -50 -96 0 -6 -4 -11 -10 -11
-5 0 -10 -7 -10 -15 0 -8 -4 -15 -10 -15 -5 0 -10 -9 -10 -20 0 -11 -4 -20 -9
-20 -5 0 -14 -14 -21 -31 -15 -35 -21 -31 -45 33 -10 26 -32 64 -50 85 -25 30
-40 38 -78 42 l-46 6 65 140 c36 77 68 148 71 158 3 9 9 17 13 17 4 0 56 -36
115 -80z m-218 -352 c11 -13 34 -65 53 -116 l32 -94 -19 -26 c-11 -15 -26 -42
-34 -59 -7 -18 -17 -33 -21 -33 -5 0 -8 -7 -8 -15 0 -8 -4 -15 -10 -15 -5 0
-9 -3 -9 -7 4 -23 -3 -23 -21 0 l-20 25 26 58 c24 54 25 63 15 104 -12 44 -54
100 -75 100 -6 0 -17 4 -25 9 -11 7 -10 16 5 50 16 37 21 41 54 41 25 0 43 -7
57 -22z m2166 -20 c17 -42 12 -57 -19 -58 -21 0 -66 -58 -74 -96 -10 -42 1
-102 26 -139 13 -20 5 -34 -130 -226 -190 -269 -211 -296 -239 -301 -34 -7
-66 8 -76 34 -9 25 3 68 22 80 20 13 61 9 85 -8 12 -8 22 -14 22 -12 0 8 94
280 225 648 33 93 56 120 104 120 33 0 38 -4 54 -42z m-1920 -667 c4 -1 12
-13 17 -27 8 -20 15 -24 28 -19 78 34 133 -8 106 -80 -8 -21 -46 -35 -74 -28
-22 6 -132 142 -124 154 2 4 12 6 22 4 9 -2 20 -4 25 -4z"/>
</g>
</svg>
